{
    "asset" : {
        "generator" : "Khronos glTF Blender I/O v1.8.19",
        "version" : "2.0"
    },
    "scene" : 0,
    "scenes" : [
        {
            "name" : "Scene",
            "nodes" : [
                0
            ]
        }
    ],
    "nodes" : [
        {
            "mesh" : 0,
            "name" : "Cube.221",
            "rotation" : [
                0.5591598749160767,
                0.22332118451595306,
                -0.11325002461671829,
                0.790343165397644
            ],
            "scale" : [
                0.8304458856582642,
                0.8304458856582642,
                0.8304458856582642
            ],
            "translation" : [
                0,
                1.190088152885437,
                0
            ]
        }
    ],
    "materials" : [
        {
            "doubleSided" : true,
            "name" : "ig.002",
            "pbrMetallicRoughness" : {
                "metallicFactor" : 0,
                "roughnessFactor" : 0.5852562785148621
            }
        },
        {
            "doubleSided" : true,
            "name" : "SVGMat.001",
            "pbrMetallicRoughness" : {
                "baseColorFactor" : [
                    1,
                    1,
                    1,
                    1
                ],
                "metallicFactor" : 0,
                "roughnessFactor" : 0.4000000059604645
            }
        }
    ],
    "meshes" : [
        {
            "name" : "Cube.216",
            "primitives" : [
                {
                    "attributes" : {
                        "POSITION" : 0,
                        "NORMAL" : 1,
                        "TEXCOORD_0" : 2
                    },
                    "indices" : 3,
                    "material" : 0
                },
                {
                    "attributes" : {
                        "POSITION" : 4,
                        "NORMAL" : 5,
                        "TEXCOORD_0" : 6
                    },
                    "indices" : 7,
                    "material" : 1
                }
            ]
        }
    ],
    "accessors" : [
        {
            "bufferView" : 0,
            "componentType" : 5126,
            "count" : 24278,
            "max" : [
                0.9995143413543701,
                0.225233256816864,
                0.9995145797729492
            ],
            "min" : [
                -0.9995145797729492,
                -0.22523321211338043,
                -0.9995145797729492
            ],
            "type" : "VEC3"
        },
        {
            "bufferView" : 1,
            "componentType" : 5126,
            "count" : 24278,
            "type" : "VEC3"
        },
        {
            "bufferView" : 2,
            "componentType" : 5126,
            "count" : 24278,
            "type" : "VEC2"
        },
        {
            "bufferView" : 3,
            "componentType" : 5123,
            "count" : 127680,
            "type" : "SCALAR"
        },
        {
            "bufferView" : 4,
            "componentType" : 5126,
            "count" : 5233,
            "max" : [
                0.5339653491973877,
                0.2070254683494568,
                0.5628188848495483
            ],
            "min" : [
                -0.5535822510719299,
                -0.1526954472064972,
                -0.5245197415351868
            ],
            "type" : "VEC3"
        },
        {
            "bufferView" : 5,
            "componentType" : 5126,
            "count" : 5233,
            "type" : "VEC3"
        },
        {
            "bufferView" : 6,
            "componentType" : 5126,
            "count" : 5233,
            "type" : "VEC2"
        },
        {
            "bufferView" : 7,
            "componentType" : 5123,
            "count" : 23388,
            "type" : "SCALAR"
        }
    ],
    "bufferViews" : [
        {
            "buffer" : 0,
            "byteLength" : 291336,
            "byteOffset" : 0
        },
        {
            "buffer" : 0,
            "byteLength" : 291336,
            "byteOffset" : 291336
        },
        {
            "buffer" : 0,
            "byteLength" : 194224,
            "byteOffset" : 582672
        },
        {
            "buffer" : 0,
            "byteLength" : 255360,
            "byteOffset" : 776896
        },
        {
            "buffer" : 0,
            "byteLength" : 62796,
            "byteOffset" : 1032256
        },
        {
            "buffer" : 0,
            "byteLength" : 62796,
            "byteOffset" : 1095052
        },
        {
            "buffer" : 0,
            "byteLength" : 41864,
            "byteOffset" : 1157848
        },
        {
            "buffer" : 0,
            "byteLength" : 46776,
            "byteOffset" : 1199712
        }
    ],
    "buffers" : [
        {
            "byteLength" : 1246488,
            "uri" : "data:application/octet-stream;base64,"
        }
    ]
}
